<svg width="100" height="100" viewBox="0 0 100 100" fill="none" xmlns="http://www.w3.org/2000/svg">
<path d="M62.6038 54.1597C63.8037 35.9746 45.0018 45.3286 44.8731 37.9211C44.8467 36.3626 44.7002 34.9676 44.4756 33.6822L38.6782 39.4796C42.7421 42.6925 46.2956 47.1476 46.4717 52.9713C46.7258 61.2973 55.0433 58.9849 60.3989 62.4941L64.3879 58.5051C63.1795 57.7596 62.4498 56.4964 62.6038 54.1597ZM44.1287 59.5448C43.9621 49.9377 39.8012 45.762 35.0245 43.1354L28.6408 49.518L38.0708 58.9459L34.2769 62.7419C31.6408 60.7796 28.3857 59.6007 24.8459 59.6007C16.1107 59.6007 9.02903 66.6813 9.02903 75.4175C9.02903 78.9552 10.2058 82.2113 12.1703 84.8464L0.617647 96.4001C-0.205882 97.2236 -0.205882 98.5586 0.617647 99.3821C1.02888 99.7944 1.56876 100 2.10865 100C2.64853 100 3.18735 99.7944 3.59964 99.3821L15.1132 87.8685C17.7979 89.97 21.1711 91.2343 24.8448 91.2343C33.5799 91.2343 40.6616 84.1515 40.6616 75.4175C40.6616 71.7438 39.3973 68.3695 37.2958 65.6859L41.0518 61.93L51.009 71.8861L57.7712 65.1239C52.5443 61.9975 44.2141 64.4701 44.1287 59.5448ZM15.8809 71.6615H15.8682C15.5308 73.7704 12.3242 74.3261 13.3375 71.1586C13.9871 68.8082 16.6601 64.0515 22.5398 64.0515C18.8787 65.4519 16.0749 69.5526 15.8809 71.6615ZM99.3821 0.617647C98.5586 -0.205882 97.2236 -0.205882 96.4001 0.617647L88.053 8.96471C85.4179 7.00026 82.1618 5.82349 78.623 5.82349C69.889 5.82349 62.8062 12.9052 62.8062 21.6403C62.8062 25.1791 63.984 28.4363 65.9474 31.0714L60.439 36.5788L51.009 27.1498L47.1845 30.9743C47.1919 31.1009 47.2129 31.2221 47.2172 31.3508C47.5894 43.5424 65.2694 32.9029 65.5879 51.1777C65.6248 53.352 66.2838 54.7048 67.3151 55.5811L73.3782 49.518L63.422 39.5618L68.8925 34.0924C71.5782 36.1939 74.9504 37.4582 78.6241 37.4582C87.3581 37.4582 94.4409 30.3765 94.4409 21.6414C94.4409 17.9676 93.1766 14.5944 91.0751 11.9098L99.3842 3.60175C100.206 2.77717 100.206 1.44118 99.3821 0.617647ZM69.6581 17.8843H69.6454C69.308 19.9933 66.1014 20.55 67.1147 17.3824C67.7653 15.032 70.4362 10.2743 76.318 10.2743C72.6559 11.6757 69.8521 15.7754 69.6581 17.8843Z" fill="#37AF0D"/>
</svg>
