<svg width="68" height="100" viewBox="0 0 68 100" fill="none" xmlns="http://www.w3.org/2000/svg">
<path d="M10.2614 19.9513L0.650665 5.59611C0.0423928 4.74453 -0.0792617 3.77129 0.0423929 2.91971C0.285702 1.94647 0.772319 1.09489 1.6239 0.608273C2.23217 0.121655 2.9621 0 3.69203 0C3.93534 0 4.17864 4.62262e-07 4.42195 0.121655C5.39519 0.364964 6.24677 0.851582 6.73339 1.70316L14.1543 12.7737C13.6677 14.2336 13.546 16.0584 14.276 18.2482C14.276 18.3698 14.3976 18.6131 14.5193 18.7348C12.9378 18.6131 11.4779 19.0998 10.2614 19.9513ZM40.5533 82.9684H33.2541C33.2541 90.146 28.0229 96.2287 21.0886 97.3236V100H52.7188V97.4453C45.7845 96.2287 40.5533 90.2676 40.5533 82.9684ZM11.2346 71.8978C11.8429 75.5474 14.8842 78.1022 18.4122 78.1022H55.2735C58.9232 78.1022 61.9645 75.5474 62.4512 71.8978L66.2224 47.6886H7.46332L11.2346 71.8978ZM67.074 36.3747C66.5874 35.7664 65.9791 35.5231 65.2492 35.5231H8.43655C7.70663 35.5231 7.09835 35.7664 6.61174 36.3747C6.12512 36.8613 6.00346 37.5912 6.00346 38.3212L6.73339 42.8224H66.9524L67.6823 38.3212C67.804 37.7129 67.5606 36.983 67.074 36.3747ZM11.3563 27.0073C11.3563 28.9538 12.9378 30.6569 15.0059 30.6569H58.8015C60.8696 30.6569 62.4512 28.9538 62.4512 27.0073C62.4512 24.9392 60.8696 23.3577 58.8015 23.3577H15.0059C12.9378 23.3577 11.3563 25.0608 11.3563 27.0073ZM20.3587 18.4915H49.1908C50.4074 18.0049 51.3806 17.3966 51.8672 16.4234C52.4755 15.4501 52.7188 13.9903 52.5971 12.5304C51.8672 6.56934 46.3928 3.04136 42.1349 1.3382C41.8915 3.52798 40.9183 5.47445 38.9718 7.17762C34.9572 10.7056 30.6993 10.8273 26.6847 10.9489C25.8331 10.9489 25.1032 10.9489 24.2516 11.0706C22.0619 11.1922 19.9937 12.1655 19.1422 13.382C18.5339 14.2336 18.5339 15.2068 18.8988 16.4234C19.1422 17.2749 19.6288 18.0049 20.3587 18.4915Z" fill="#CC48ED"/>
</svg>
