<svg width="152" height="100" viewBox="0 0 152 100" fill="none" xmlns="http://www.w3.org/2000/svg">
<path fill-rule="evenodd" clip-rule="evenodd" d="M30.0756 50.1785C30.0756 77.6944 52.3812 100 79.8971 100C107.413 100 129.719 77.6944 129.719 50.1785C129.719 22.6626 107.413 0.357035 79.8971 0.357035C52.3812 0.357035 30.0756 22.6626 30.0756 50.1785ZM50.5204 50.1785C50.5204 33.9365 63.6551 20.8018 79.8971 20.8018C96.121 20.8018 109.274 33.9546 109.274 50.1785C109.274 66.4206 96.1392 79.5552 79.8971 79.5552C63.6762 79.5552 50.5204 66.3994 50.5204 50.1785ZM79.8971 13.652C59.7489 13.652 43.3737 30.0272 43.3737 50.1755C43.3737 70.3449 59.7307 86.6989 79.8971 86.6989C100.051 86.6989 116.421 70.3298 116.421 50.1755C116.424 30.006 100.067 13.652 79.8971 13.652ZM64.584 46.3389C67.0378 46.3389 68.4085 47.9667 68.4327 50.3298C68.4085 52.5567 67.0378 54.1846 64.584 54.1846C62.4206 54.1846 60.6566 52.4175 60.6566 50.2632C60.6566 48.1089 62.4175 46.3389 64.584 46.3389ZM75.6067 50.2632C75.5552 44.705 71.6823 39.1649 64.5809 39.1649C58.2088 39.1649 53.4796 44.3933 53.4765 50.2632C53.4765 56.1331 58.2088 61.3616 64.5809 61.3616C71.6823 61.3616 75.5552 55.8184 75.6067 50.2632ZM77.8336 51.0106C77.6762 53.5915 76.8351 56.1331 75.3555 58.2511C76.0454 59.1316 76.4206 60.2995 76.4327 61.643C76.4054 64.5023 74.5749 66.6233 71.4644 66.6233C69.3464 66.6233 67.531 65.3101 66.7776 63.4644C64.236 63.8366 61.6369 63.5522 59.2708 62.5265C59.7549 68.5961 64.7897 73.8003 71.4644 73.8003C79.2829 73.8003 83.5492 67.6974 83.6067 61.5764C83.5673 57.4039 81.5734 53.2405 77.8336 51.0106ZM67.4675 32.0363C73.9123 35.3858 78.348 39.8759 81.3646 45.177C84.3843 50.4841 85.9818 56.6112 86.7443 63.2103L87.1014 63.2587C89.7973 56.5174 89.5946 48.6566 85.9244 42.3056C82.0061 35.528 75.18 32.1301 67.5582 31.6853L67.4675 32.0363ZM81.1619 29.0197C86.4054 34.0514 89.3949 39.6127 90.7927 45.5522C92.1906 51.4947 91.997 57.8245 90.8684 64.3722L91.1952 64.5174C95.6823 58.8139 97.7065 51.2103 95.9758 44.0847C94.1301 36.4781 88.5295 31.2859 81.3495 28.711L81.1619 29.0197ZM95.1377 32.8411C95.1377 34.3298 96.3449 35.5401 97.8336 35.5401C99.3222 35.5401 100.529 34.3328 100.529 32.8411C100.529 31.3525 99.3222 30.1452 97.8336 30.1452C96.3449 30.1452 95.1377 31.3525 95.1377 32.8411ZM101.949 43.7095C100.46 43.7095 99.2526 44.9168 99.2526 46.4054C99.2526 47.8941 100.46 49.1014 101.949 49.1014C103.437 49.1014 104.644 47.8941 104.644 46.4054C104.644 44.9168 103.434 43.7095 101.949 43.7095ZM102.59 60.2965C102.59 58.8079 101.383 57.6006 99.8941 57.6006C98.4054 57.6006 97.1982 58.8079 97.1982 60.2965C97.1982 61.7852 98.4054 62.9924 99.8941 62.9924C101.383 62.9924 102.59 61.7852 102.59 60.2965ZM94.357 70.826C94.357 69.3374 93.1528 68.1301 91.6611 68.1301C90.1725 68.1301 88.9652 69.3343 88.9652 70.826C88.9652 72.3147 90.1725 73.5219 91.6611 73.5219C93.1528 73.5219 94.357 72.3147 94.357 70.826ZM22.9864 38.8472L29.6157 32.2148L28.1634 0H21.9002V24.6929H18.4508L17.9425 0H11.6762L11.1649 24.6899H7.71558V0H1.45234L0 32.2178L6.63237 38.8502H10.3964L9.71256 99.3131H19.9092L19.2254 38.8472H22.9864ZM141.561 0L136.073 55.9183H141.498L141.089 99.3131H151.286V55.9183V0H141.561ZM38.823 50.1785C38.823 27.4917 57.2103 9.10136 79.9001 9.10136C102.59 9.10136 120.974 27.4917 120.974 50.1785C120.974 72.8653 102.587 91.2557 79.9001 91.2557C57.2133 91.2557 38.823 72.8653 38.823 50.1785Z" fill="#EC873E"/>
</svg>
