<svg width="63" height="100" viewBox="0 0 63 100" fill="none" xmlns="http://www.w3.org/2000/svg">
<path d="M40.7273 90.1818C40.7273 95.6364 36.3636 100 30.9091 100C25.4545 100 21.0909 95.6364 21.0909 90.1818C21.0909 84.7273 25.4545 80.3636 30.9091 80.3636C36.3636 80.5455 40.7273 84.9091 40.7273 90.1818ZM31.0909 0C14 0 0 13.8182 0 31.0909C0 36.1818 4 40.1818 9.09091 40.1818C14.1818 40.1818 18.1818 36.1818 18.1818 31.0909C18.1818 24 24 18.1818 31.0909 18.1818C38.1818 18.1818 44 24 44 31.0909C44 34.5455 38.1818 37.6364 35.6364 38.7273C35.0909 38.9091 34.5455 39.2727 34.1818 39.6364C24.9091 46.1818 20.3636 57.4545 22.9091 68.5455C23.8182 72.7273 27.6364 75.6364 31.8182 75.6364C32.5455 75.6364 33.0909 75.6364 33.8182 75.4545C38.7273 74.3636 41.8182 69.6364 40.7273 64.7273C40 61.0909 41.2727 57.2727 44.1818 54.9091C60 47.4545 62.3636 36.9091 62.3636 31.0909C62.1818 13.8182 48.1818 0 31.0909 0Z" fill="#F54040"/>
</svg>
